screens;
 
http://baypic.net/share.php?id=4CE3_50DCA802
 
http://baypic.net/share.php?id=9487_50DCA7AF

************************************************

Enjoy This Release

Brought to you by

XxX - Releasers Group	

*************************************************

Format                                   : Windows Media
File size                                : 1.76 GiB
Duration                                 : 37mn 58s
Overall bit rate mode                    : Variable
Overall bit rate                         : 6 641 Kbps
Maximum Overall bit rate                 : 8 159 Kbps
Encoded date                             : UTC 2012-12-17 23:47:47.540

Video
ID                                       : 2
Format                                   : VC-1
Format profile                           : MP@HL
Codec ID                                 : WMV3
Codec ID/Info                            : Windows Media Video 9
Codec ID/Hint                            : WMV3
Description of the codec                 : Windows Media Video 9 - Professional
Duration                                 : 37mn 58s
Bit rate mode                            : Variable
Bit rate                                 : 6 500 Kbps
Width                                    : 1 920 pixels
Height                                   : 1 080 pixels
Display aspect ratio                     : 16:9
Frame rate                               : 25.000 fps
Bit depth                                : 8 bits
Scan type                                : Progressive
Compression mode                         : Lossy
Bits/(Pixel*Frame)                       : 0.125
Stream size                              : 1.72 GiB (98%)
NumberOfFrames                           : 56955

Audio
ID                                       : 1
Format                                   : WMA
Format profile                           : Pro
Codec ID                                 : 162
Codec ID/Info                            : Windows Media Audio
Description of the codec                 : Windows Media Audio 10 Professional - 128 kbps, 48 kHz, 2 channel 24 bit 2-pass VBR
Duration                                 : 37mn 58s
Bit rate mode                            : Variable
Bit rate                                 : 124 Kbps
Channel(s)                               : 2 channels
Sampling rate                            : 48.0 KHz
Bit depth                                : 24 bits
Stream size                              : 33.7 MiB (2%)
NumberOfFrames                           : 6472


